<mxfile host="app.diagrams.net" modified="2023-04-25T12:47:27.051Z" agent="Mozilla/5.0 (Windows NT 10.0; Win64; x64) AppleWebKit/537.36 (KHTML, like Gecko) Chrome/112.0.0.0 Safari/537.36" version="21.2.1" etag="j7PJYpxV3J9UPqDr_Fky" type="github">
  <diagram name="Страница 1" id="cCCIlAFTOr4Qi8Cy_CkC">
    <mxGraphModel>
      <root>
        <mxCell id="0" />
        <mxCell id="1" parent="0" />
      </root>
    </mxGraphModel>
  </diagram>
</mxfile>
